<title>Issue 38321 -   chromium -    wmapro does not decode with chromeos - Project Hosting on Google Code</title> <pre> chronos@localhost:/home/chronos/qual$ ./media_bench --stream=audio   tulip_wmapro.wma  Error: Could not find stream info for tulip_wmapro.wma    should look something like this:    chronos@localhost:/home/chronos/qual$ ./media_bench --stream=audio   tulip_wma2.wma  * Stream #0: wmav2 (Windows Media Audio 2)         Frames:         25        Total:     119.09 ms    Summation:     117.78 ms      Average:       4.71 ms       StdDev:       0.82 ms    ffmpeg -i should give information on the format.  But only recent versions   work.  ffmpeg -i tulip_wmapro.wma tulip_wmapro.wav  Input #0  asf  from 'tulip_wmapro.wma':    Metadata:      WM/EncodingSettings: Lavf52.54.0    Duration: 00:00:16.04  start: 3.100000  bitrate: 115 kb/s      Stream #0.0: Audio: wmapro  44100 Hz  stereo  flt  384 kb/s  Output #0  wav  to 'tulip_wmapro.wav':    Metadata:      encoder         : Lavf52.54.0      Stream #0.0: Audio: pcm_s16le  44100 Hz  stereo  s16  1411 kb/s  Stream mapping:    Stream #0.0 -&gt; #0.0  Press [q] to stop encoding  Multiple frames in a packet from stream 0  size=    2872kB time=16.67 bitrate=1411.2kbits/s  video:0kB audio:2872kB global headers:0kB muxing overhead 0.001496%   </pre>